<svg width="24" height="24" viewBox="0 0 24 24" fill="none" xmlns="http://www.w3.org/2000/svg">
<path opacity="0.9" fill-rule="evenodd" clip-rule="evenodd" d="M24 12C24 18.6274 18.6274 24 12 24C5.37258 24 0 18.6274 0 12C0 5.37258 5.37258 0 12 0C18.6274 0 24 5.37258 24 12ZM16.2486 8.96529C16.5838 8.63008 16.5838 8.08661 16.2486 7.7514C15.9134 7.4162 15.3699 7.4162 15.0347 7.7514L12 10.786L8.96529 7.7514C8.63008 7.4162 8.08661 7.4162 7.7514 7.7514C7.4162 8.08661 7.4162 8.63008 7.7514 8.96529L10.786 12L7.7514 15.0347C7.4162 15.3699 7.4162 15.9134 7.7514 16.2486C8.08661 16.5838 8.63008 16.5838 8.96529 16.2486L12 13.214L15.0347 16.2486C15.3699 16.5838 15.9134 16.5838 16.2486 16.2486C16.5838 15.9134 16.5838 15.3699 16.2486 15.0347L13.214 12L16.2486 8.96529Z" fill="#E6E6E6"/>
</svg>
